<svg width="865" height="904" viewBox="0 0 865 904" fill="none" xmlns="http://www.w3.org/2000/svg">
<g filter="url(#filter0_f_11_1314)">
<path d="M436.155 322.719C554.216 274.665 599.625 139.513 647.679 257.574C695.733 375.635 463.503 691.381 345.442 739.435C227.381 787.488 268.196 549.654 220.142 431.593C172.088 313.532 318.094 370.773 436.155 322.719Z" fill="url(#paint0_linear_11_1314)"/>
</g>
<path d="M323.053 397.166C323.053 397.166 309.812 403.466 308.693 416.673C307.573 429.881 341.071 466.089 341.071 466.089L432.944 408.285L399.234 357.419L323.053 397.166Z" fill="#C7DCF9"/>
<path d="M344.966 408.101C344.966 408.101 335.629 419.077 333.321 430.681C331.012 442.284 331.989 462.662 333.015 470.25C348.914 483.09 407.285 467.496 407.285 467.496L459.766 396.596C459.766 396.596 448.866 378.901 443.621 374.202C438.376 369.503 422.052 364.322 404.204 372.942C394.467 388.949 344.966 408.101 344.966 408.101Z" fill="#E1ECFF"/>
<g style="mix-blend-mode:multiply">
<path d="M340.848 413.729C340.848 413.729 363.459 419.339 387.722 408.035C411.986 396.731 414.672 369.321 414.672 369.321L404.192 372.946L344.966 408.101L340.848 413.729Z" fill="#E1ECFF"/>
</g>
<path d="M436.551 490.798C436.551 490.798 464.546 489.091 472.544 490.569C480.542 492.048 504.53 537.745 513.445 541.674C522.36 545.602 529.17 537.619 538.282 531.417C547.394 525.215 555.635 517.898 555.718 515.071C555.801 512.243 551.014 501.291 547.376 499.261C543.738 497.232 533.608 497.754 528.443 501.575C519.055 480.503 505.654 449.752 495.022 446.112C484.39 442.471 452.915 442.52 452.915 442.52L436.551 490.798Z" fill="#E1ECFF"/>
<g style="mix-blend-mode:multiply" opacity="0.51">
<path d="M464.595 468.189C464.595 468.189 487.547 469.146 494.413 477.2C501.279 485.255 517.251 536.296 531.295 536.583C532.652 553.374 504.147 561.394 504.147 561.394L429.645 489.057L464.595 468.189Z" fill="#E1ECFF"/>
</g>
<path d="M361.086 491.619C361.086 491.619 380.726 526.547 396.996 535.338C413.265 544.129 441.485 541.426 449.719 547.346C457.952 553.267 458.392 584.345 466.74 592.022C475.088 599.699 486.395 603.985 496.584 602.37C506.774 600.754 514.645 595.283 514.438 590.662C514.231 586.042 513.549 582.068 508.565 579.932C503.581 577.796 496.657 576.205 496.171 573.356C495.686 570.506 487.29 527.194 484.228 515.475C481.167 503.755 462.495 488.425 439.306 481.632C416.668 465.135 384.275 475.042 384.275 475.042L361.086 491.619Z" fill="#E1ECFF"/>
<g style="mix-blend-mode:multiply">
<path d="M366.743 500.937C366.743 500.937 386.558 500.613 403.767 491.626C399.161 473.808 388.346 469.184 388.346 469.184L361.086 491.619L366.743 500.937Z" fill="#E1ECFF"/>
</g>
<path d="M381.358 310.631C365.334 303.395 332.734 302.788 314.401 328.95C296.067 355.112 307.774 380.173 316.989 391.586C326.64 403.565 358.195 420.739 389.273 400.514C420.352 380.29 420.239 328.195 381.358 310.631Z" fill="#E1ECFF"/>
<path d="M379.721 325.984C393.679 328.338 403.902 347.011 400.533 365.777C397.164 384.543 382.107 398.023 364.275 399.326C346.444 400.629 327.884 389.645 326.444 366.863C325.064 344.969 349.41 320.873 379.721 325.984Z" fill="#1C3177"/>
<g style="mix-blend-mode:multiply">
<path d="M349.865 472.808C367.203 463.294 352.535 445.23 370.086 439.713C393.836 441.472 400.262 439.833 400.262 439.833C400.262 439.833 357.923 482.394 349.865 472.808Z" fill="#E1ECFF"/>
</g>
<path d="M361.357 421.072L396.313 495.71L438.384 491.864L475.288 464.864L484.421 429.229L450.892 347.448L439.997 387.527L406.813 417.777L361.357 421.072Z" fill="#FF97C9"/>
<path d="M349.865 472.808C359.686 471.342 364.282 464.572 367.083 461.517C368.509 459.958 368.119 458.702 367.068 454.552C366.016 450.403 368.39 445.913 371.907 443.823C374.271 449.07 376.797 449.925 378.676 449.545C380.556 449.165 381.74 437.701 387.949 437.383C394.158 437.065 399.685 444.936 400.79 448.978C401.895 453.02 398.678 464.978 394.205 473.52C389.732 482.062 383.327 492.695 367.579 496.949C351.832 501.203 342.207 493.664 336.282 483.713C334.283 480.355 333.323 475.592 333.018 470.234C333.018 470.234 336.909 474.711 349.865 472.808Z" fill="#E1ECFF"/>
<path d="M462.439 375.614C462.439 375.614 464.757 381.668 463.639 384.164C462.521 386.659 460.911 388.769 459.838 391.941C458.766 395.112 461.447 406.612 467.219 408.229C472.992 409.845 477.305 404.305 478.59 401.179C479.874 398.054 478.514 390.166 475.936 384.777C473.358 379.388 468.88 374.746 462.439 375.614Z" fill="#E1ECFF"/>
<path d="M463.741 298.366L465.178 300.841C465.265 300.992 465.386 301.118 465.532 301.211C465.679 301.303 465.845 301.358 466.018 301.372L468.874 301.581C469.074 301.596 469.265 301.667 469.427 301.785C469.588 301.903 469.713 302.065 469.788 302.251C469.862 302.436 469.883 302.639 469.848 302.837C469.813 303.034 469.723 303.217 469.589 303.366L467.68 305.504C467.563 305.633 467.48 305.789 467.438 305.957C467.395 306.125 467.394 306.301 467.435 306.47L468.104 309.238C468.151 309.432 468.143 309.636 468.081 309.826C468.019 310.015 467.904 310.184 467.751 310.312C467.598 310.44 467.412 310.523 467.214 310.551C467.016 310.579 466.815 310.552 466.632 310.471L464.009 309.313C463.851 309.243 463.678 309.212 463.505 309.224C463.332 309.235 463.164 309.289 463.017 309.38L460.574 310.88C460.403 310.985 460.207 311.041 460.006 311.04C459.806 311.039 459.61 310.982 459.44 310.876C459.27 310.769 459.134 310.617 459.046 310.437C458.959 310.256 458.924 310.055 458.945 309.856L459.24 307.022C459.258 306.85 459.233 306.675 459.169 306.514C459.104 306.353 459.001 306.211 458.868 306.099L456.689 304.236C456.536 304.106 456.422 303.937 456.361 303.746C456.3 303.556 456.293 303.352 456.342 303.157C456.391 302.963 456.493 302.787 456.638 302.648C456.782 302.509 456.962 302.413 457.158 302.371L459.96 301.78C460.129 301.744 460.287 301.667 460.419 301.556C460.552 301.444 460.656 301.302 460.721 301.142L461.813 298.496C461.888 298.309 462.015 298.147 462.178 298.029C462.342 297.911 462.535 297.841 462.736 297.828C462.937 297.814 463.138 297.857 463.316 297.952C463.494 298.048 463.641 298.191 463.741 298.366Z" fill="#FEC272"/>
<path d="M346.643 578.508L347.848 580.585C347.92 580.712 348.022 580.818 348.145 580.895C348.269 580.973 348.409 581.018 348.554 581.028L350.95 581.212C351.117 581.225 351.277 581.285 351.412 581.384C351.547 581.483 351.651 581.618 351.714 581.774C351.776 581.929 351.794 582.099 351.764 582.264C351.735 582.429 351.661 582.583 351.549 582.707L349.945 584.496C349.847 584.605 349.777 584.737 349.741 584.879C349.706 585.022 349.707 585.171 349.743 585.313L350.302 587.647C350.341 587.81 350.333 587.981 350.281 588.139C350.228 588.298 350.132 588.439 350.004 588.547C349.876 588.654 349.72 588.724 349.554 588.748C349.389 588.772 349.219 588.75 349.066 588.683L346.87 587.71C346.737 587.652 346.592 587.626 346.447 587.636C346.302 587.646 346.161 587.69 346.038 587.766L344 589.017C343.856 589.105 343.692 589.151 343.524 589.15C343.356 589.15 343.191 589.102 343.049 589.012C342.907 588.922 342.793 588.795 342.72 588.643C342.646 588.492 342.617 588.323 342.635 588.156L342.876 585.768C342.891 585.622 342.87 585.475 342.816 585.338C342.761 585.202 342.674 585.081 342.562 584.986L340.737 583.429C340.609 583.32 340.514 583.178 340.463 583.018C340.412 582.859 340.407 582.688 340.448 582.526C340.489 582.363 340.574 582.215 340.695 582.099C340.815 581.982 340.966 581.902 341.13 581.867L343.475 581.363C343.618 581.333 343.751 581.269 343.863 581.176C343.975 581.083 344.063 580.964 344.119 580.829L345.034 578.609C345.099 578.454 345.205 578.32 345.342 578.223C345.479 578.125 345.64 578.068 345.807 578.058C345.975 578.047 346.142 578.084 346.29 578.163C346.437 578.243 346.56 578.363 346.643 578.508Z" fill="#FEC272"/>
<g style="mix-blend-mode:soft-light" opacity="0.48">
<path d="M369.281 349.8C378.982 346.965 386.034 341.885 385.031 338.454C384.029 335.023 375.352 334.539 365.65 337.374C355.949 340.208 348.898 345.288 349.9 348.719C350.903 352.151 359.58 352.634 369.281 349.8Z" fill="white"/>
</g>
<g style="mix-blend-mode:multiply">
<path d="M399.284 460.624C399.284 460.624 387.273 451.264 385.221 451.403C383.168 451.541 378.242 459.913 379.617 461.95C380.993 463.988 387.791 470.507 394.886 472.175C396.849 467.726 399.284 460.624 399.284 460.624Z" fill="#E1ECFF"/>
</g>
<g style="mix-blend-mode:multiply" opacity="0.5">
<path d="M406.814 417.777L438.384 491.864L475.288 464.864L439.997 387.527L406.814 417.777Z" fill="#FF97C9"/>
</g>
<g style="mix-blend-mode:multiply">
<path d="M487.474 529.815C483.731 533.367 479.454 536.31 474.798 538.536C470.429 540.567 469.151 544.207 470.945 550.606C472.739 557.004 474.182 567.073 477.163 569.549C480.144 572.025 489.683 569.958 494.259 563.427C491.872 551.329 487.474 529.815 487.474 529.815Z" fill="#E1ECFF"/>
</g>
<g style="mix-blend-mode:multiply">
<path d="M509.121 461.882C509.121 461.882 503.683 464.701 504.478 468.559C505.273 472.416 512.264 490.849 514.635 492.393C517.007 493.938 523.482 490.478 523.482 490.478C515.313 471.51 509.121 461.882 509.121 461.882Z" fill="#E1ECFF"/>
</g>
<path d="M275.754 522.858C270.678 513.923 284.524 503.061 296.921 502.94C309.317 502.82 315.276 513.87 319.936 517.828C329.67 526.087 329.968 534.79 323.893 538.95C317.819 543.11 282.472 534.677 275.754 522.858Z" fill="#C944F8"/>
<path d="M515.217 362.987C511.403 360.076 514.109 345.005 522.382 340.962C530.655 336.919 541.475 340 544.133 345.794C546.79 351.588 523.036 368.947 515.217 362.987Z" fill="#C944F8"/>
<path d="M557.439 368.106C555.772 370.859 555.048 378.429 559.031 379.499C563.015 380.569 565.44 372.667 563.801 368.75C562.162 364.833 558.553 366.266 557.439 368.106Z" fill="#C944F8"/>
<path opacity="0.44" d="M556.143 307.163C553.33 308.728 548.937 314.933 551.867 317.843C554.796 320.752 560.818 315.096 561.342 310.885C561.866 306.673 558.022 306.12 556.143 307.163Z" fill="#C944F8"/>
<path opacity="0.44" d="M298.806 560.338C296.158 558.507 288.653 557.305 287.333 561.216C286.013 565.128 293.749 568.019 297.748 566.648C301.748 565.277 300.569 561.562 298.806 560.338Z" fill="#C944F8"/>
<g style="mix-blend-mode:multiply" opacity="0.64">
<path d="M317.577 515.443C313.164 516.585 314.154 520.534 315.83 524.058C317.507 527.583 322.619 528.275 325.953 524.726C323.273 519.388 317.577 515.443 317.577 515.443Z" fill="#C944F8"/>
</g>
<g style="mix-blend-mode:multiply" opacity="0.64">
<path d="M291.477 511.146C288.3 511.718 286.003 516.527 288.514 520.133C291.024 523.738 295.51 526.185 297.902 524.994C300.293 523.804 300.332 518.238 298.316 514.805C296.3 511.371 294.531 510.594 291.477 511.146Z" fill="#C944F8"/>
</g>
<g style="mix-blend-mode:multiply" opacity="0.64">
<path d="M533.938 343.39C532.219 344.069 530.566 346.09 530.861 348.132C531.155 350.174 533.069 351.846 534.997 351.471C536.925 351.096 538.37 347.843 537.818 345.613C537.265 343.383 535.249 342.876 533.938 343.39Z" fill="#C944F8"/>
</g>
<g style="mix-blend-mode:multiply" opacity="0.64">
<path d="M515.605 348.647C515.605 348.647 518.168 350.885 517.951 353.637C517.735 356.389 513.58 356.416 513.58 356.416C513.58 356.416 513.883 351.729 515.605 348.647Z" fill="#C944F8"/>
</g>
<defs>
<filter id="filter0_f_11_1314" x="0.744141" y="0.446495" width="863.388" height="955.311" filterUnits="userSpaceOnUse" color-interpolation-filters="sRGB">
<feFlood flood-opacity="0" result="BackgroundImageFix"/>
<feBlend mode="normal" in="SourceGraphic" in2="BackgroundImageFix" result="shape"/>
<feGaussianBlur stdDeviation="105" result="effect1_foregroundBlur_11_1314"/>
</filter>
<linearGradient id="paint0_linear_11_1314" x1="292.97" y1="760.792" x2="170.292" y2="328.965" gradientUnits="userSpaceOnUse">
<stop stop-color="#007777" stop-opacity="0.72549"/>
<stop offset="1" stop-color="#7434DB"/>
</linearGradient>
</defs>
</svg>
